<svg width="154" height="25" viewBox="0 0 154 25" fill="none" xmlns="http://www.w3.org/2000/svg">
<path d="M4.8 24.1279V19.0279C4.02 18.6879 3.3348 18.2331 2.7444 17.6635C2.154 17.0939 1.654 16.4487 1.2444 15.7279C0.834804 15.0071 0.524805 14.2371 0.314405 13.4179C0.104005 12.5987 -0.000795454 11.7687 4.54545e-06 10.9279C4.54545e-06 7.76793 1.12 5.17793 3.36 3.15793C5.6 1.13793 8.48 0.12793 12 0.12793C15.52 0.12793 18.4 1.13793 20.64 3.15793C22.88 5.17793 24 7.76793 24 10.9279C24 11.7679 23.8952 12.5979 23.6856 13.4179C23.476 14.2379 23.166 15.0079 22.7556 15.7279C22.3452 16.4479 21.8452 17.0931 21.2556 17.6635C20.666 18.2339 19.9808 18.6887 19.2 19.0279V24.1279H4.8ZM7.2 21.7279H8.4V19.3279H10.8V21.7279H13.2V19.3279H15.6V21.7279H16.8V17.4679C17.56 17.2879 18.2352 16.9879 18.8256 16.5679C19.416 16.1479 19.916 15.6479 20.3256 15.0679C20.7352 14.4879 21.05 13.8479 21.27 13.1479C21.49 12.4479 21.6 11.7079 21.6 10.9279C21.6 8.42793 20.7152 6.40313 18.9456 4.85353C17.176 3.30393 14.8608 2.52873 12 2.52793C9.1392 2.52713 6.824 3.30233 5.0544 4.85353C3.2848 6.40473 2.4 8.42953 2.4 10.9279C2.4 11.7079 2.51 12.4479 2.73 13.1479C2.95 13.8479 3.2652 14.4879 3.6756 15.0679C4.086 15.6479 4.5908 16.1479 5.19 16.5679C5.7892 16.9879 6.4592 17.2879 7.2 17.4679V21.7279ZM10.2 15.7279H13.8L12 12.1279L10.2 15.7279ZM7.8 13.3279C8.46 13.3279 9.0252 13.0931 9.4956 12.6235C9.966 12.1539 10.2008 11.5887 10.2 10.9279C10.1992 10.2671 9.9644 9.70233 9.4956 9.23353C9.0268 8.76473 8.4616 8.52953 7.8 8.52793C7.1384 8.52633 6.5736 8.76153 6.1056 9.23353C5.6376 9.70553 5.4024 10.2703 5.4 10.9279C5.3976 11.5855 5.6328 12.1507 6.1056 12.6235C6.5784 13.0963 7.1432 13.3311 7.8 13.3279ZM16.2 13.3279C16.86 13.3279 17.4252 13.0931 17.8956 12.6235C18.366 12.1539 18.6008 11.5887 18.6 10.9279C18.5992 10.2671 18.3644 9.70233 17.8956 9.23353C17.4268 8.76473 16.8616 8.52953 16.2 8.52793C15.5384 8.52633 14.9736 8.76153 14.5056 9.23353C14.0376 9.70553 13.8024 10.2703 13.8 10.9279C13.7976 11.5855 14.0328 12.1507 14.5056 12.6235C14.9784 13.0963 15.5432 13.3311 16.2 13.3279Z" fill="#C9F352"/>
<path d="M36 20.08V5.104H39.72C40.6 5.104 41.336 5.184 41.928 5.344C42.536 5.504 43.048 5.736 43.464 6.04C43.896 6.344 44.272 6.72 44.592 7.168C44.928 7.616 45.208 8.12 45.432 8.68C45.672 9.24 45.848 9.856 45.96 10.528C46.072 11.184 46.128 11.896 46.128 12.664C46.112 13.816 45.968 14.848 45.696 15.76C45.44 16.672 45.04 17.448 44.496 18.088C43.968 18.728 43.288 19.224 42.456 19.576C41.624 19.912 40.616 20.08 39.432 20.08H36ZM38.28 18.208H39.384C40.456 18.208 41.312 17.992 41.952 17.56C42.608 17.112 43.08 16.48 43.368 15.664C43.672 14.832 43.824 13.856 43.824 12.736C43.824 11.552 43.688 10.536 43.416 9.688C43.144 8.84 42.704 8.184 42.096 7.72C41.504 7.24 40.68 7 39.624 7H38.28V18.208Z" fill="white"/>
<path d="M53.4 20.32C52.6 20.32 51.864 20.192 51.192 19.936C50.52 19.68 49.936 19.312 49.44 18.832C48.96 18.336 48.584 17.728 48.312 17.008C48.04 16.288 47.904 15.472 47.904 14.56C47.904 13.632 48.04 12.808 48.312 12.088C48.584 11.352 48.952 10.736 49.416 10.24C49.896 9.744 50.448 9.36 51.072 9.088C51.712 8.816 52.392 8.68 53.112 8.68C53.736 8.68 54.328 8.792 54.888 9.016C55.464 9.24 55.96 9.576 56.376 10.024C56.808 10.456 57.144 11.008 57.384 11.68C57.64 12.352 57.768 13.136 57.768 14.032C57.768 14.192 57.768 14.376 57.768 14.584C57.768 14.776 57.76 14.944 57.744 15.088H50.208C50.24 15.664 50.352 16.168 50.544 16.6C50.736 17.016 50.976 17.36 51.264 17.632C51.568 17.904 51.912 18.104 52.296 18.232C52.68 18.36 53.08 18.424 53.496 18.424C53.864 18.424 54.2 18.392 54.504 18.328C54.824 18.248 55.128 18.128 55.416 17.968C55.704 17.808 55.968 17.592 56.208 17.32L57.456 18.544C57.12 18.944 56.744 19.28 56.328 19.552C55.912 19.808 55.456 20 54.96 20.128C54.48 20.256 53.96 20.32 53.4 20.32ZM50.256 13.288H55.44C55.44 12.84 55.384 12.448 55.272 12.112C55.16 11.776 54.992 11.488 54.768 11.248C54.56 11.008 54.304 10.832 54 10.72C53.696 10.592 53.36 10.528 52.992 10.528C52.64 10.528 52.312 10.584 52.008 10.696C51.72 10.808 51.456 10.976 51.216 11.2C50.976 11.424 50.768 11.712 50.592 12.064C50.432 12.4 50.32 12.808 50.256 13.288Z" fill="white"/>
<path d="M63.744 20.32C62.512 20.32 61.552 20.04 60.864 19.48C60.192 18.904 59.856 18.16 59.856 17.248C59.856 16.64 59.992 16.096 60.264 15.616C60.552 15.12 60.952 14.696 61.464 14.344C61.992 13.992 62.624 13.72 63.36 13.528C64.096 13.32 64.928 13.216 65.856 13.216C66.048 13.216 66.248 13.224 66.456 13.24C66.68 13.24 66.912 13.248 67.152 13.264C67.408 13.28 67.664 13.296 67.92 13.312L67.992 15.016C67.768 14.984 67.528 14.96 67.272 14.944C67.032 14.928 66.792 14.92 66.552 14.92C66.312 14.92 66.088 14.92 65.88 14.92C65.256 14.92 64.712 14.968 64.248 15.064C63.8 15.144 63.424 15.272 63.12 15.448C62.832 15.624 62.616 15.84 62.472 16.096C62.328 16.352 62.256 16.648 62.256 16.984C62.256 17.256 62.304 17.496 62.4 17.704C62.496 17.896 62.624 18.048 62.784 18.16C62.96 18.272 63.16 18.36 63.384 18.424C63.624 18.472 63.88 18.496 64.152 18.496C64.68 18.496 65.144 18.408 65.544 18.232C65.944 18.056 66.28 17.8 66.552 17.464C66.84 17.112 67.056 16.68 67.2 16.168C67.344 15.64 67.416 15.024 67.416 14.32C67.416 13.344 67.304 12.584 67.08 12.04C66.872 11.496 66.56 11.12 66.144 10.912C65.728 10.704 65.208 10.6 64.584 10.6C64.072 10.6 63.576 10.688 63.096 10.864C62.632 11.024 62.176 11.328 61.728 11.776L60.456 10.336C61.064 9.76 61.728 9.344 62.448 9.088C63.184 8.832 63.936 8.704 64.704 8.704C65.408 8.704 66.056 8.792 66.648 8.968C67.256 9.128 67.784 9.4 68.232 9.784C68.696 10.168 69.048 10.688 69.288 11.344C69.544 12 69.672 12.832 69.672 13.84V20.056H67.176V18.688C66.968 19.008 66.736 19.28 66.48 19.504C66.224 19.712 65.944 19.88 65.64 20.008C65.352 20.12 65.048 20.2 64.728 20.248C64.408 20.296 64.08 20.32 63.744 20.32Z" fill="white"/>
<path d="M76.368 20.32C75.776 20.32 75.2 20.2 74.64 19.96C74.096 19.704 73.608 19.336 73.176 18.856C72.744 18.376 72.4 17.768 72.144 17.032C71.904 16.28 71.784 15.416 71.784 14.44C71.784 13.448 71.904 12.592 72.144 11.872C72.4 11.152 72.744 10.56 73.176 10.096C73.608 9.616 74.104 9.264 74.664 9.04C75.224 8.8 75.808 8.68 76.416 8.68C76.848 8.68 77.24 8.736 77.592 8.848C77.96 8.96 78.288 9.128 78.576 9.352C78.864 9.576 79.096 9.856 79.272 10.192V4H81.816V4.216C81.736 4.312 81.68 4.416 81.648 4.528C81.616 4.64 81.608 4.832 81.624 5.104V18.496C81.624 18.752 81.632 19.016 81.648 19.288C81.68 19.544 81.752 19.8 81.864 20.056H79.512C79.432 19.88 79.376 19.72 79.344 19.576C79.312 19.432 79.296 19.288 79.296 19.144C79.296 19 79.296 18.848 79.296 18.688C79.072 19.024 78.816 19.32 78.528 19.576C78.24 19.816 77.912 20 77.544 20.128C77.176 20.256 76.784 20.32 76.368 20.32ZM76.776 18.352C77.208 18.352 77.576 18.264 77.88 18.088C78.184 17.912 78.432 17.656 78.624 17.32C78.816 16.984 78.96 16.576 79.056 16.096C79.152 15.616 79.2 15.072 79.2 14.464C79.2 13.648 79.112 12.952 78.936 12.376C78.76 11.784 78.48 11.336 78.096 11.032C77.728 10.712 77.256 10.552 76.68 10.552C76.264 10.552 75.896 10.64 75.576 10.816C75.256 10.992 74.984 11.248 74.76 11.584C74.552 11.904 74.392 12.296 74.28 12.76C74.168 13.224 74.112 13.744 74.112 14.32C74.112 15.136 74.224 15.848 74.448 16.456C74.688 17.064 75.008 17.536 75.408 17.872C75.808 18.192 76.264 18.352 76.776 18.352Z" fill="white"/>
<path d="M95.736 20.056V5.104H97.752L100.92 12.112L104.136 5.08H106.128V20.056H104.04V9.328L101.4 15.016H100.296L97.8 9.376V20.056H95.736Z" fill="white"/>
<path d="M112.896 20.296C111.888 20.296 110.992 20.056 110.208 19.576C109.424 19.08 108.8 18.4 108.336 17.536C107.872 16.656 107.64 15.648 107.64 14.512C107.64 13.392 107.872 12.4 108.336 11.536C108.8 10.656 109.424 9.968 110.208 9.472C110.992 8.96 111.888 8.704 112.896 8.704C113.888 8.704 114.776 8.96 115.56 9.472C116.36 9.968 116.992 10.656 117.456 11.536C117.92 12.4 118.152 13.392 118.152 14.512C118.152 15.632 117.92 16.632 117.456 17.512C116.992 18.376 116.36 19.056 115.56 19.552C114.776 20.048 113.888 20.296 112.896 20.296ZM112.896 18.352C113.44 18.352 113.92 18.192 114.336 17.872C114.768 17.536 115.104 17.08 115.344 16.504C115.584 15.928 115.704 15.256 115.704 14.488C115.704 13.704 115.584 13.024 115.344 12.448C115.104 11.872 114.768 11.424 114.336 11.104C113.92 10.784 113.44 10.624 112.896 10.624C112.352 10.624 111.864 10.784 111.432 11.104C111.016 11.424 110.688 11.872 110.448 12.448C110.208 13.024 110.088 13.704 110.088 14.488C110.088 15.256 110.208 15.928 110.448 16.504C110.688 17.08 111.016 17.536 111.432 17.872C111.864 18.192 112.352 18.352 112.896 18.352Z" fill="white"/>
<path d="M120.336 20.056V8.944H122.736V10.648C123.008 10.248 123.312 9.904 123.648 9.616C123.984 9.328 124.36 9.104 124.776 8.944C125.192 8.768 125.64 8.68 126.12 8.68C126.744 8.68 127.32 8.84 127.848 9.16C128.376 9.48 128.8 9.984 129.12 10.672C129.44 11.344 129.6 12.24 129.6 13.36V20.056H127.224V13.384C127.224 12.728 127.152 12.192 127.008 11.776C126.864 11.36 126.656 11.056 126.384 10.864C126.128 10.672 125.816 10.576 125.448 10.576C125.128 10.576 124.808 10.648 124.488 10.792C124.168 10.936 123.872 11.136 123.6 11.392C123.344 11.632 123.136 11.936 122.976 12.304C122.816 12.656 122.736 13.056 122.736 13.504V20.056H120.336Z" fill="white"/>
<path d="M137.4 20.32C136.6 20.32 135.864 20.192 135.192 19.936C134.52 19.68 133.936 19.312 133.44 18.832C132.96 18.336 132.584 17.728 132.312 17.008C132.04 16.288 131.904 15.472 131.904 14.56C131.904 13.632 132.04 12.808 132.312 12.088C132.584 11.352 132.952 10.736 133.416 10.24C133.896 9.744 134.448 9.36 135.072 9.088C135.712 8.816 136.392 8.68 137.112 8.68C137.736 8.68 138.328 8.792 138.888 9.016C139.464 9.24 139.96 9.576 140.376 10.024C140.808 10.456 141.144 11.008 141.384 11.68C141.64 12.352 141.768 13.136 141.768 14.032C141.768 14.192 141.768 14.376 141.768 14.584C141.768 14.776 141.76 14.944 141.744 15.088H134.208C134.24 15.664 134.352 16.168 134.544 16.6C134.736 17.016 134.976 17.36 135.264 17.632C135.568 17.904 135.912 18.104 136.296 18.232C136.68 18.36 137.08 18.424 137.496 18.424C137.864 18.424 138.2 18.392 138.504 18.328C138.824 18.248 139.128 18.128 139.416 17.968C139.704 17.808 139.968 17.592 140.208 17.32L141.456 18.544C141.12 18.944 140.744 19.28 140.328 19.552C139.912 19.808 139.456 20 138.96 20.128C138.48 20.256 137.96 20.32 137.4 20.32ZM134.256 13.288H139.44C139.44 12.84 139.384 12.448 139.272 12.112C139.16 11.776 138.992 11.488 138.768 11.248C138.56 11.008 138.304 10.832 138 10.72C137.696 10.592 137.36 10.528 136.992 10.528C136.64 10.528 136.312 10.584 136.008 10.696C135.72 10.808 135.456 10.976 135.216 11.2C134.976 11.424 134.768 11.712 134.592 12.064C134.432 12.4 134.32 12.808 134.256 13.288Z" fill="white"/>
<path d="M145.92 24.256C145.392 24.256 144.92 24.168 144.504 23.992C144.088 23.832 143.688 23.584 143.304 23.248L144.192 21.616L144.312 21.424L144.48 21.52C144.528 21.632 144.584 21.736 144.648 21.832C144.728 21.944 144.88 22.08 145.104 22.24C145.232 22.288 145.368 22.32 145.512 22.336C145.656 22.368 145.8 22.384 145.944 22.384C146.312 22.384 146.624 22.288 146.88 22.096C147.136 21.92 147.36 21.64 147.552 21.256C147.76 20.872 147.968 20.376 148.176 19.768L150.48 13.048C150.72 12.344 150.928 11.664 151.104 11.008C151.296 10.336 151.416 9.648 151.464 8.944H153.72C153.656 9.68 153.488 10.44 153.216 11.224C152.96 12.008 152.696 12.768 152.424 13.504L149.664 21.112C149.248 22.28 148.728 23.096 148.104 23.56C147.48 24.024 146.752 24.256 145.92 24.256ZM143.76 8.944H146.184L149.544 17.68L148.344 20.32L143.76 8.944Z" fill="white"/>
</svg>
