<svg preserveAspectRatio="none" width="100%" height="100%" overflow="visible" style="display: block;" viewBox="0 0 117.72 20.256" fill="none" xmlns="http://www.w3.org/2000/svg">
<g id="Dead Money">
<path d="M0 16.08V1.104H3.72C4.6 1.104 5.336 1.184 5.928 1.344C6.536 1.504 7.048 1.736 7.464 2.04C7.896 2.344 8.272 2.72 8.592 3.168C8.928 3.616 9.208 4.12 9.432 4.68C9.672 5.24 9.848 5.856 9.96 6.528C10.072 7.184 10.128 7.896 10.128 8.664C10.112 9.816 9.968 10.848 9.696 11.76C9.44 12.672 9.04 13.448 8.496 14.088C7.968 14.728 7.288 15.224 6.456 15.576C5.624 15.912 4.616 16.08 3.432 16.08H0ZM2.28 14.208H3.384C4.456 14.208 5.312 13.992 5.952 13.56C6.608 13.112 7.08 12.48 7.368 11.664C7.672 10.832 7.824 9.856 7.824 8.736C7.824 7.552 7.688 6.536 7.416 5.688C7.144 4.84 6.704 4.184 6.096 3.72C5.504 3.24 4.68 3 3.624 3H2.28V14.208Z" fill="var(--fill-0, white)"/>
<path d="M17.4 16.32C16.6 16.32 15.864 16.192 15.192 15.936C14.52 15.68 13.936 15.312 13.44 14.832C12.96 14.336 12.584 13.728 12.312 13.008C12.04 12.288 11.904 11.472 11.904 10.56C11.904 9.632 12.04 8.808 12.312 8.088C12.584 7.352 12.952 6.736 13.416 6.24C13.896 5.744 14.448 5.36 15.072 5.088C15.712 4.816 16.392 4.68 17.112 4.68C17.736 4.68 18.328 4.792 18.888 5.016C19.464 5.24 19.96 5.576 20.376 6.024C20.808 6.456 21.144 7.008 21.384 7.68C21.64 8.352 21.768 9.136 21.768 10.032C21.768 10.192 21.768 10.376 21.768 10.584C21.768 10.776 21.76 10.944 21.744 11.088H14.208C14.24 11.664 14.352 12.168 14.544 12.6C14.736 13.016 14.976 13.36 15.264 13.632C15.568 13.904 15.912 14.104 16.296 14.232C16.68 14.36 17.08 14.424 17.496 14.424C17.864 14.424 18.2 14.392 18.504 14.328C18.824 14.248 19.128 14.128 19.416 13.968C19.704 13.808 19.968 13.592 20.208 13.32L21.456 14.544C21.12 14.944 20.744 15.28 20.328 15.552C19.912 15.808 19.456 16 18.96 16.128C18.48 16.256 17.96 16.32 17.4 16.32ZM14.256 9.288H19.44C19.44 8.84 19.384 8.448 19.272 8.112C19.16 7.776 18.992 7.488 18.768 7.248C18.56 7.008 18.304 6.832 18 6.72C17.696 6.592 17.36 6.528 16.992 6.528C16.64 6.528 16.312 6.584 16.008 6.696C15.72 6.808 15.456 6.976 15.216 7.2C14.976 7.424 14.768 7.712 14.592 8.064C14.432 8.4 14.32 8.808 14.256 9.288Z" fill="var(--fill-0, white)"/>
<path d="M27.744 16.32C26.512 16.32 25.552 16.04 24.864 15.48C24.192 14.904 23.856 14.16 23.856 13.248C23.856 12.64 23.992 12.096 24.264 11.616C24.552 11.12 24.952 10.696 25.464 10.344C25.992 9.992 26.624 9.72 27.36 9.528C28.096 9.32 28.928 9.216 29.856 9.216C30.048 9.216 30.248 9.224 30.456 9.24C30.68 9.24 30.912 9.248 31.152 9.264C31.408 9.28 31.664 9.296 31.92 9.312L31.992 11.016C31.768 10.984 31.528 10.96 31.272 10.944C31.032 10.928 30.792 10.92 30.552 10.92C30.312 10.92 30.088 10.92 29.88 10.92C29.256 10.92 28.712 10.968 28.248 11.064C27.8 11.144 27.424 11.272 27.12 11.448C26.832 11.624 26.616 11.84 26.472 12.096C26.328 12.352 26.256 12.648 26.256 12.984C26.256 13.256 26.304 13.496 26.4 13.704C26.496 13.896 26.624 14.048 26.784 14.16C26.96 14.272 27.16 14.36 27.384 14.424C27.624 14.472 27.88 14.496 28.152 14.496C28.68 14.496 29.144 14.408 29.544 14.232C29.944 14.056 30.28 13.8 30.552 13.464C30.84 13.112 31.056 12.68 31.2 12.168C31.344 11.64 31.416 11.024 31.416 10.32C31.416 9.344 31.304 8.584 31.08 8.04C30.872 7.496 30.56 7.12 30.144 6.912C29.728 6.704 29.208 6.6 28.584 6.6C28.072 6.6 27.576 6.688 27.096 6.864C26.632 7.024 26.176 7.328 25.728 7.776L24.456 6.336C25.064 5.76 25.728 5.344 26.448 5.088C27.184 4.832 27.936 4.704 28.704 4.704C29.408 4.704 30.056 4.792 30.648 4.968C31.256 5.128 31.784 5.4 32.232 5.784C32.696 6.168 33.048 6.688 33.288 7.344C33.544 8 33.672 8.832 33.672 9.84V16.056H31.176V14.688C30.968 15.008 30.736 15.28 30.48 15.504C30.224 15.712 29.944 15.88 29.64 16.008C29.352 16.12 29.048 16.2 28.728 16.248C28.408 16.296 28.08 16.32 27.744 16.32Z" fill="var(--fill-0, white)"/>
<path d="M40.368 16.32C39.776 16.32 39.2 16.2 38.64 15.96C38.096 15.704 37.608 15.336 37.176 14.856C36.744 14.376 36.4 13.768 36.144 13.032C35.904 12.28 35.784 11.416 35.784 10.44C35.784 9.448 35.904 8.592 36.144 7.872C36.4 7.152 36.744 6.56 37.176 6.096C37.608 5.616 38.104 5.264 38.664 5.04C39.224 4.8 39.808 4.68 40.416 4.68C40.848 4.68 41.24 4.736 41.592 4.848C41.96 4.96 42.288 5.128 42.576 5.352C42.864 5.576 43.096 5.856 43.272 6.192V0H45.816V0.216C45.736 0.312 45.68 0.416 45.648 0.528C45.616 0.64 45.608 0.832 45.624 1.104V14.496C45.624 14.752 45.632 15.016 45.648 15.288C45.68 15.544 45.752 15.8 45.864 16.056H43.512C43.432 15.88 43.376 15.72 43.344 15.576C43.312 15.432 43.296 15.288 43.296 15.144C43.296 15 43.296 14.848 43.296 14.688C43.072 15.024 42.816 15.32 42.528 15.576C42.24 15.816 41.912 16 41.544 16.128C41.176 16.256 40.784 16.32 40.368 16.32ZM40.776 14.352C41.208 14.352 41.576 14.264 41.88 14.088C42.184 13.912 42.432 13.656 42.624 13.32C42.816 12.984 42.96 12.576 43.056 12.096C43.152 11.616 43.2 11.072 43.2 10.464C43.2 9.648 43.112 8.952 42.936 8.376C42.76 7.784 42.48 7.336 42.096 7.032C41.728 6.712 41.256 6.552 40.68 6.552C40.264 6.552 39.896 6.64 39.576 6.816C39.256 6.992 38.984 7.248 38.76 7.584C38.552 7.904 38.392 8.296 38.28 8.76C38.168 9.224 38.112 9.744 38.112 10.32C38.112 11.136 38.224 11.848 38.448 12.456C38.688 13.064 39.008 13.536 39.408 13.872C39.808 14.192 40.264 14.352 40.776 14.352Z" fill="var(--fill-0, white)"/>
<path d="M59.736 16.056V1.104H61.752L64.92 8.112L68.136 1.08H70.128V16.056H68.04V5.328L65.4 11.016H64.296L61.8 5.376V16.056H59.736Z" fill="var(--fill-0, white)"/>
<path d="M76.896 16.296C75.888 16.296 74.992 16.056 74.208 15.576C73.424 15.08 72.8 14.4 72.336 13.536C71.872 12.656 71.64 11.648 71.64 10.512C71.64 9.392 71.872 8.4 72.336 7.536C72.8 6.656 73.424 5.968 74.208 5.472C74.992 4.96 75.888 4.704 76.896 4.704C77.888 4.704 78.776 4.96 79.56 5.472C80.36 5.968 80.992 6.656 81.456 7.536C81.92 8.4 82.152 9.392 82.152 10.512C82.152 11.632 81.92 12.632 81.456 13.512C80.992 14.376 80.36 15.056 79.56 15.552C78.776 16.048 77.888 16.296 76.896 16.296ZM76.896 14.352C77.44 14.352 77.92 14.192 78.336 13.872C78.768 13.536 79.104 13.08 79.344 12.504C79.584 11.928 79.704 11.256 79.704 10.488C79.704 9.704 79.584 9.024 79.344 8.448C79.104 7.872 78.768 7.424 78.336 7.104C77.92 6.784 77.44 6.624 76.896 6.624C76.352 6.624 75.864 6.784 75.432 7.104C75.016 7.424 74.688 7.872 74.448 8.448C74.208 9.024 74.088 9.704 74.088 10.488C74.088 11.256 74.208 11.928 74.448 12.504C74.688 13.08 75.016 13.536 75.432 13.872C75.864 14.192 76.352 14.352 76.896 14.352Z" fill="var(--fill-0, white)"/>
<path d="M84.336 16.056V4.944H86.736V6.648C87.008 6.248 87.312 5.904 87.648 5.616C87.984 5.328 88.36 5.104 88.776 4.944C89.192 4.768 89.64 4.68 90.12 4.68C90.744 4.68 91.32 4.84 91.848 5.16C92.376 5.48 92.8 5.984 93.12 6.672C93.44 7.344 93.6 8.24 93.6 9.36V16.056H91.224V9.384C91.224 8.728 91.152 8.192 91.008 7.776C90.864 7.36 90.656 7.056 90.384 6.864C90.128 6.672 89.816 6.576 89.448 6.576C89.128 6.576 88.808 6.648 88.488 6.792C88.168 6.936 87.872 7.136 87.6 7.392C87.344 7.632 87.136 7.936 86.976 8.304C86.816 8.656 86.736 9.056 86.736 9.504V16.056H84.336Z" fill="var(--fill-0, white)"/>
<path d="M101.4 16.32C100.6 16.32 99.864 16.192 99.192 15.936C98.52 15.68 97.936 15.312 97.44 14.832C96.96 14.336 96.584 13.728 96.312 13.008C96.04 12.288 95.904 11.472 95.904 10.56C95.904 9.632 96.04 8.808 96.312 8.088C96.584 7.352 96.952 6.736 97.416 6.24C97.896 5.744 98.448 5.36 99.072 5.088C99.712 4.816 100.392 4.68 101.112 4.68C101.736 4.68 102.328 4.792 102.888 5.016C103.464 5.24 103.96 5.576 104.376 6.024C104.808 6.456 105.144 7.008 105.384 7.68C105.64 8.352 105.768 9.136 105.768 10.032C105.768 10.192 105.768 10.376 105.768 10.584C105.768 10.776 105.76 10.944 105.744 11.088H98.208C98.24 11.664 98.352 12.168 98.544 12.6C98.736 13.016 98.976 13.36 99.264 13.632C99.568 13.904 99.912 14.104 100.296 14.232C100.68 14.36 101.08 14.424 101.496 14.424C101.864 14.424 102.2 14.392 102.504 14.328C102.824 14.248 103.128 14.128 103.416 13.968C103.704 13.808 103.968 13.592 104.208 13.32L105.456 14.544C105.12 14.944 104.744 15.28 104.328 15.552C103.912 15.808 103.456 16 102.96 16.128C102.48 16.256 101.96 16.32 101.4 16.32ZM98.256 9.288H103.44C103.44 8.84 103.384 8.448 103.272 8.112C103.16 7.776 102.992 7.488 102.768 7.248C102.56 7.008 102.304 6.832 102 6.72C101.696 6.592 101.36 6.528 100.992 6.528C100.64 6.528 100.312 6.584 100.008 6.696C99.72 6.808 99.456 6.976 99.216 7.2C98.976 7.424 98.768 7.712 98.592 8.064C98.432 8.4 98.32 8.808 98.256 9.288Z" fill="var(--fill-0, white)"/>
<path d="M109.92 20.256C109.392 20.256 108.92 20.168 108.504 19.992C108.088 19.832 107.688 19.584 107.304 19.248L108.192 17.616L108.312 17.424L108.48 17.52C108.528 17.632 108.584 17.736 108.648 17.832C108.728 17.944 108.88 18.08 109.104 18.24C109.232 18.288 109.368 18.32 109.512 18.336C109.656 18.368 109.8 18.384 109.944 18.384C110.312 18.384 110.624 18.288 110.88 18.096C111.136 17.92 111.36 17.64 111.552 17.256C111.76 16.872 111.968 16.376 112.176 15.768L114.48 9.048C114.72 8.344 114.928 7.664 115.104 7.008C115.296 6.336 115.416 5.648 115.464 4.944H117.72C117.656 5.68 117.488 6.44 117.216 7.224C116.96 8.008 116.696 8.768 116.424 9.504L113.664 17.112C113.248 18.28 112.728 19.096 112.104 19.56C111.48 20.024 110.752 20.256 109.92 20.256ZM107.76 4.944H110.184L113.544 13.68L112.344 16.32L107.76 4.944Z" fill="var(--fill-0, white)"/>
</g>
</svg>
