<svg width="24" height="24" viewBox="0 0 24 24" fill="none" xmlns="http://www.w3.org/2000/svg">
<path d="M4.8 24V18.9C4.02 18.56 3.3348 18.1052 2.7444 17.5356C2.154 16.966 1.654 16.3208 1.2444 15.6C0.834804 14.8792 0.524805 14.1092 0.314405 13.29C0.104005 12.4708 -0.000795454 11.6408 4.54545e-06 10.8C4.54545e-06 7.64 1.12 5.05 3.36 3.03C5.6 1.01 8.48 0 12 0C15.52 0 18.4 1.01 20.64 3.03C22.88 5.05 24 7.64 24 10.8C24 11.64 23.8952 12.47 23.6856 13.29C23.476 14.11 23.166 14.88 22.7556 15.6C22.3452 16.32 21.8452 16.9652 21.2556 17.5356C20.666 18.106 19.9808 18.5608 19.2 18.9V24H4.8ZM7.2 21.6H8.4V19.2H10.8V21.6H13.2V19.2H15.6V21.6H16.8V17.34C17.56 17.16 18.2352 16.86 18.8256 16.44C19.416 16.02 19.916 15.52 20.3256 14.94C20.7352 14.36 21.05 13.72 21.27 13.02C21.49 12.32 21.6 11.58 21.6 10.8C21.6 8.3 20.7152 6.2752 18.9456 4.7256C17.176 3.176 14.8608 2.4008 12 2.4C9.1392 2.3992 6.824 3.1744 5.0544 4.7256C3.2848 6.2768 2.4 8.3016 2.4 10.8C2.4 11.58 2.51 12.32 2.73 13.02C2.95 13.72 3.2652 14.36 3.6756 14.94C4.086 15.52 4.5908 16.02 5.19 16.44C5.7892 16.86 6.4592 17.16 7.2 17.34V21.6ZM10.2 15.6H13.8L12 12L10.2 15.6ZM7.8 13.2C8.46 13.2 9.0252 12.9652 9.4956 12.4956C9.966 12.026 10.2008 11.4608 10.2 10.8C10.1992 10.1392 9.9644 9.5744 9.4956 9.1056C9.0268 8.6368 8.4616 8.4016 7.8 8.4C7.1384 8.3984 6.5736 8.6336 6.1056 9.1056C5.6376 9.5776 5.4024 10.1424 5.4 10.8C5.3976 11.4576 5.6328 12.0228 6.1056 12.4956C6.5784 12.9684 7.1432 13.2032 7.8 13.2ZM16.2 13.2C16.86 13.2 17.4252 12.9652 17.8956 12.4956C18.366 12.026 18.6008 11.4608 18.6 10.8C18.5992 10.1392 18.3644 9.5744 17.8956 9.1056C17.4268 8.6368 16.8616 8.4016 16.2 8.4C15.5384 8.3984 14.9736 8.6336 14.5056 9.1056C14.0376 9.5776 13.8024 10.1424 13.8 10.8C13.7976 11.4576 14.0328 12.0228 14.5056 12.4956C14.9784 12.9684 15.5432 13.2032 16.2 13.2Z" fill="#C9F352"/>
</svg>
