<svg preserveAspectRatio="none" width="100%" height="100%" overflow="visible" style="display: block;" viewBox="0 0 144 144" fill="none" xmlns="http://www.w3.org/2000/svg">
<path id="Vector" d="M28.8 144V113.4C24.12 111.36 20.0088 108.631 16.4664 105.214C12.924 101.796 9.92403 97.9248 7.46643 93.6C5.00883 89.2752 3.14883 84.6552 1.88643 79.74C0.624028 74.8248 -0.00477273 69.8448 2.72727e-05 64.8C2.72727e-05 45.84 6.72003 30.3 20.16 18.18C33.6 6.06 50.88 0 72 0C93.12 0 110.4 6.06 123.84 18.18C137.28 30.3 144 45.84 144 64.8C144 69.84 143.371 74.82 142.114 79.74C140.856 84.66 138.996 89.28 136.534 93.6C134.071 97.92 131.071 101.791 127.534 105.214C123.996 108.636 119.885 111.365 115.2 113.4V144H28.8ZM43.2 129.6H50.4V115.2H64.8V129.6H79.2V115.2H93.6V129.6H100.8V104.04C105.36 102.96 109.411 101.16 112.954 98.64C116.496 96.12 119.496 93.12 121.954 89.64C124.411 86.16 126.3 82.32 127.62 78.12C128.94 73.92 129.6 69.48 129.6 64.8C129.6 49.8 124.291 37.6512 113.674 28.3536C103.056 19.056 89.1648 14.4048 72 14.4C54.8352 14.3952 40.944 19.0464 30.3264 28.3536C19.7088 37.6608 14.4 49.8096 14.4 64.8C14.4 69.48 15.06 73.92 16.38 78.12C17.7 82.32 19.5912 86.16 22.0536 89.64C24.516 93.12 27.5448 96.12 31.14 98.64C34.7352 101.16 38.7552 102.96 43.2 104.04V129.6ZM61.2 93.6H82.8L72 72L61.2 93.6ZM46.8 79.2C50.76 79.2 54.1512 77.7912 56.9736 74.9736C59.796 72.156 61.2048 68.7648 61.2 64.8C61.1952 60.8352 59.7864 57.4464 56.9736 54.6336C54.1608 51.8208 50.7696 50.4096 46.8 50.4C42.8304 50.3904 39.4416 51.8016 36.6336 54.6336C33.8256 57.4656 32.4144 60.8544 32.4 64.8C32.3856 68.7456 33.7968 72.1368 36.6336 74.9736C39.4704 77.8104 42.8592 79.2192 46.8 79.2ZM97.2 79.2C101.16 79.2 104.551 77.7912 107.374 74.9736C110.196 72.156 111.605 68.7648 111.6 64.8C111.595 60.8352 110.186 57.4464 107.374 54.6336C104.561 51.8208 101.17 50.4096 97.2 50.4C93.2304 50.3904 89.8416 51.8016 87.0336 54.6336C84.2256 57.4656 82.8144 60.8544 82.8 64.8C82.7856 68.7456 84.1968 72.1368 87.0336 74.9736C89.8704 77.8104 93.2592 79.2192 97.2 79.2Z" fill="var(--fill-0, #C9F352)"/>
</svg>
