<svg width="387" height="285" viewBox="0 0 387 285" fill="none" xmlns="http://www.w3.org/2000/svg">
<g style="mix-blend-mode:hard-light" opacity="0.2">
<path d="M241.875 298.375C261.225 239.067 282.607 217.669 338.625 201.625C282.607 185.581 261.225 164.183 241.875 104.875C222.525 164.183 201.143 185.581 145.125 201.625C201.143 217.669 222.525 239.067 241.875 298.375ZM112.875 153.25C122.55 123.58 133.241 112.889 161.25 104.875C133.241 96.8609 122.55 86.17 112.875 56.5C103.2 86.17 92.5091 96.8609 64.5 104.875C92.5091 112.889 103.2 123.58 112.875 153.25ZM137.062 314.5C141.9 299.665 147.237 294.328 161.25 290.312C147.237 286.297 141.9 280.96 137.062 266.125C132.225 280.96 126.888 286.297 112.875 290.312C126.888 294.328 132.225 299.665 137.062 314.5Z" stroke="#00A888" stroke-width="9" stroke-linejoin="round"/>
</g>
</svg>
