<svg width="367" height="241" viewBox="0 0 367 241" fill="none" xmlns="http://www.w3.org/2000/svg">
<g style="mix-blend-mode:hard-light" opacity="0.2">
<path d="M221.875 160.375C241.225 101.067 262.607 79.6694 318.625 63.625C262.607 47.5806 241.225 26.1827 221.875 -33.125C202.525 26.1827 181.143 47.5806 125.125 63.625C181.143 79.6694 202.525 101.067 221.875 160.375ZM92.875 15.25C102.55 -14.42 113.241 -25.1109 141.25 -33.125C113.241 -41.1391 102.55 -51.83 92.875 -81.5C83.2 -51.83 72.5091 -41.1391 44.5 -33.125C72.5091 -25.1109 83.2 -14.42 92.875 15.25ZM117.062 176.5C121.9 161.665 127.237 156.328 141.25 152.312C127.237 148.297 121.9 142.96 117.062 128.125C112.225 142.96 106.888 148.297 92.875 152.312C106.888 156.328 112.225 161.665 117.062 176.5Z" stroke="#00A888" stroke-width="9" stroke-linejoin="round"/>
</g>
</svg>
